<svg width="1226" height="700" viewBox="0 0 1226 813" fill="none" xmlns="http://www.w3.org/2000/svg">
<path d="M900.299 789.38C900.299 797.889 775.896 804.751 622.222 804.751C468.548 804.751 344.145 797.889 344.145 789.38C344.145 780.871 468.548 774.009 622.222 774.009C775.896 774.009 900.299 780.871 900.299 789.38Z" fill="#F2E4F2"/>
<path d="M160.624 812.203C237.284 812.203 299.429 806.573 299.429 799.627C299.429 792.681 237.284 787.051 160.624 787.051C83.9637 787.051 21.8184 792.681 21.8184 799.627C21.8184 806.573 83.9637 812.203 160.624 812.203Z" fill="#F2E4F2"/>
<path d="M378.276 791.976C378.276 791.976 126.397 769.788 123.87 661.376C119.938 501.006 247.422 536.675 257.812 486.682C268.202 436.69 88.2076 326.312 96.6317 168.47C103.371 44.3301 271.852 -55.0938 455.216 36.4661C638.58 128.026 789.651 218.182 896.356 213.126C971.05 209.475 1006.15 145.439 1102.18 189.815C1201.87 235.876 1246.24 401.582 1139.53 554.369C1063.43 663.062 811.273 794.503 811.273 794.503L378.276 791.976Z" fill="#B9E9FC"/>
<path d="M988.799 801.956C988.799 807.619 966.287 812.203 938.494 812.203C910.701 812.203 888.188 807.619 888.188 801.956C888.188 796.293 910.701 791.709 938.494 791.709C966.009 791.709 988.799 796.293 988.799 801.956Z" fill="#F2E4F2"/>
<path d="M1110.84 798.23C1110.84 802.827 1092.38 806.614 1069.38 806.614C1046.38 806.614 1027.93 802.827 1027.93 798.23C1027.93 793.632 1046.38 789.845 1069.38 789.845C1092.38 789.845 1110.84 793.632 1110.84 798.23Z" fill="#F2E4F2"/>
<path d="M396.516 372.334C391.997 354.661 370.53 346.245 355.277 356.344C338.329 367.565 326.183 390.568 314.319 393.373C297.089 397.301 245.398 365.601 245.398 365.601L254.719 393.654C254.719 393.654 299.066 436.013 318.839 434.891C332.397 434.05 357.536 411.608 379.851 402.911C392.562 398.423 399.624 385.238 396.516 372.334Z" fill="#E64B55"/>
<path d="M306.409 772.212C306.409 772.212 287.303 692.413 177.439 673.588C139.507 667.125 98.7648 727.536 175.753 733.155C207.504 735.403 250.213 729.222 306.409 772.212Z" fill="#9A9CDE"/>
<path d="M166.762 700.281C166.762 700.281 275.782 706.462 324.954 801.434" stroke="#8E90CE" stroke-width="1.0556" stroke-miterlimit="10"/>
<path d="M1096.24 320.958C1081.35 329.106 1075.45 346.808 1075.45 346.808C1075.45 346.808 1093.72 351.303 1108.61 343.155C1123.5 335.007 1132.77 323.486 1129.4 317.305C1125.75 311.404 1110.86 312.809 1096.24 320.958Z" fill="#ACAFFA"/>
<path d="M1060.56 358.328C1048.2 361.981 1041.17 374.344 1041.17 374.344C1041.17 374.344 1053.82 380.525 1066.18 376.873C1078.54 373.22 1086.97 365.914 1085.57 360.857C1083.88 355.799 1072.64 354.675 1060.56 358.328Z" fill="#ACAFFA"/>
<path d="M1049.32 342.312C1043.42 353.551 1047.07 367.319 1047.07 367.319C1047.07 367.319 1060.56 362.543 1066.46 351.303C1072.36 340.064 1073.2 328.825 1068.71 326.296C1063.93 323.767 1055.22 330.792 1049.32 342.312Z" fill="#ACAFFA"/>
<path d="M1038.36 383.054C1023.19 385.302 1012.23 398.508 1012.23 398.508C1012.23 398.508 1026.28 408.342 1041.45 406.095C1056.63 403.847 1068.43 396.822 1067.58 390.641C1066.74 384.178 1053.54 380.806 1038.36 383.054Z" fill="#ACAFFA"/>
<path d="M1013.35 365.071C1007.73 379.401 1014.2 395.417 1014.2 395.417C1014.2 395.417 1029.65 387.831 1035.27 373.501C1040.89 359.171 1040.61 345.403 1034.43 343.155C1028.25 340.907 1018.97 350.741 1013.35 365.071Z" fill="#ACAFFA"/>
<path d="M1021.5 412.838C1006.05 411.433 992.562 421.829 992.562 421.829C992.562 421.829 1004.08 434.474 1019.26 435.878C1034.71 437.283 1047.63 433.069 1048.2 426.887C1048.76 420.425 1036.68 414.243 1021.5 412.838Z" fill="#ACAFFA"/>
<path d="M999.587 445.432C983.29 443.184 968.398 453.861 968.398 453.861C968.398 453.861 979.918 467.91 996.496 470.158C1012.79 472.406 1026.84 468.472 1027.68 461.729C1028.53 454.985 1015.88 447.68 999.587 445.432Z" fill="#ACAFFA"/>
<path d="M979.356 478.307C963.34 474.373 947.324 483.364 947.324 483.364C947.324 483.364 957.44 498.537 973.455 502.471C989.471 506.405 1003.8 503.876 1005.49 497.413C1007.17 490.67 995.372 481.959 979.356 478.307Z" fill="#ACAFFA"/>
<path d="M956.596 515.396C940.019 514.272 925.97 525.792 925.97 525.792C925.97 525.792 938.333 538.998 954.911 540.403C971.488 541.527 984.975 537.031 985.537 530.007C986.099 522.982 973.174 516.52 956.596 515.396Z" fill="#ACAFFA"/>
<path d="M996.215 390.641C1000.99 405.252 993.967 420.987 993.967 420.987C993.967 420.987 979.075 412.838 974.018 397.946C968.96 383.054 970.084 369.848 976.265 367.6C982.447 365.633 991.438 376.03 996.215 390.641Z" fill="#ACAFFA"/>
<path d="M965.026 422.11C973.175 436.44 968.96 454.142 968.96 454.142C968.96 454.142 951.539 448.523 943.391 434.193C935.242 419.863 933.556 405.533 939.457 402.161C945.358 398.789 956.878 407.781 965.026 422.11Z" fill="#ACAFFA"/>
<path d="M941.985 453.018C951.539 466.505 949.01 484.488 949.01 484.488C949.01 484.488 931.027 480.835 921.474 467.348C911.921 453.861 908.83 439.812 914.449 435.878C920.35 431.945 932.432 439.531 941.985 453.018Z" fill="#ACAFFA"/>
<path d="M925.127 494.322C932.433 509.214 927.094 526.635 927.094 526.635C927.094 526.635 909.954 520.173 902.93 505.281C895.624 490.389 894.781 476.059 900.963 472.968C907.144 469.877 917.822 479.43 925.127 494.322Z" fill="#ACAFFA"/>
<path d="M936.366 555.014C920.069 557.262 908.549 571.592 908.549 571.592C908.549 571.592 923.441 581.988 939.738 579.74C956.035 577.492 968.679 570.187 967.555 563.162C966.712 556.419 952.944 552.766 936.366 555.014Z" fill="#ACAFFA"/>
<path d="M901.244 540.684C911.359 553.609 909.673 571.873 909.673 571.873C909.673 571.873 891.691 569.063 881.575 555.857C871.46 542.932 867.526 528.883 873.146 524.668C878.485 520.453 891.129 527.759 901.244 540.684Z" fill="#ACAFFA"/>
<path d="M922.317 598.566C906.301 602.219 895.905 617.392 895.905 617.392C895.905 617.392 911.64 626.664 927.656 623.011C943.672 619.359 955.473 610.929 954.068 604.186C952.663 597.442 938.333 594.913 922.317 598.566Z" fill="#ACAFFA"/>
<path d="M885.79 587.327C897.029 599.409 897.029 617.673 897.029 617.673C897.029 617.673 878.765 616.268 867.526 604.186C856.287 592.103 851.229 578.335 856.287 573.84C861.625 569.063 874.551 575.245 885.79 587.327Z" fill="#ACAFFA"/>
<path d="M1093.15 337.816C1093.15 337.816 1008.86 374.625 944.514 491.794C880.17 609.243 880.451 725.288 880.451 725.288" stroke="#ACAFFA" stroke-width="1.6573" stroke-miterlimit="10"/>
<path d="M1079.1 539.279C982.728 557.824 978.233 603.062 908.831 602.5C839.428 601.657 873.146 750.576 873.146 750.576C873.146 750.576 947.887 653.076 1059.15 649.423C1177.73 645.771 1175.48 520.734 1079.1 539.279Z" fill="#9A9CDE"/>
<path d="M1086.41 582.269C1063.37 599.69 1037.52 612.896 1010.26 622.449C996.778 627.226 982.729 631.16 968.399 633.688L963.06 634.812L957.721 635.655L947.044 637.06C940.02 637.903 933.276 639.589 926.814 642.399C913.889 647.456 902.649 657.01 894.501 668.249C886.353 679.769 881.014 692.975 877.642 706.743C874.551 720.511 873.146 734.841 874.27 749.171C875.394 763.22 878.485 777.55 886.072 789.913C881.857 784.013 878.766 777.55 876.518 770.526C874.27 763.501 872.865 756.477 872.023 749.452C870.337 735.122 871.18 720.511 874.27 706.181C877.08 691.851 882.7 678.083 891.129 666.001C899.559 653.919 911.079 644.085 924.847 638.465C931.59 635.655 938.896 633.969 946.201 633.126L956.879 631.722L962.217 631.16L967.556 630.317C981.605 628.069 995.373 624.135 1009.14 619.639C1022.63 615.144 1036.11 609.805 1049.04 603.624C1061.97 597.442 1074.61 590.417 1086.41 582.269Z" fill="#8E90CE"/>
<path d="M906.021 744.395C906.021 744.395 929.342 658.415 1049.04 641.556C1090.34 635.655 1132.49 702.81 1049.04 706.181C1014.76 707.867 968.679 699.438 906.021 744.395Z" fill="#BFC0F3"/>
<path d="M1060 671.059C1060 671.059 941.424 674.431 885.228 775.583" stroke="#B1B3E3" stroke-width="1.1459" stroke-miterlimit="10"/>
<path d="M467.411 370.41C454.486 380.244 451.395 397.665 451.395 397.665C451.395 397.665 469.097 399.351 482.022 389.798C494.947 379.963 501.971 367.881 498.038 362.543C494.104 356.923 480.336 360.576 467.411 370.41Z" fill="#ACAFFA"/>
<path d="M439.032 410.59C428.073 415.929 423.016 428.292 423.016 428.292C423.016 428.292 435.941 432.226 446.899 427.168C457.857 421.829 465.163 413.962 462.915 409.466C460.667 404.69 449.99 405.252 439.032 410.59Z" fill="#ACAFFA"/>
<path d="M426.387 396.822C422.454 408.342 427.792 420.706 427.792 420.706C427.792 420.706 439.593 414.243 443.808 402.723C447.742 391.203 447.18 380.525 442.403 378.84C437.346 377.435 430.321 385.302 426.387 396.822Z" fill="#ACAFFA"/>
<path d="M421.611 436.721C407.562 440.936 399.132 454.985 399.132 454.985C399.132 454.985 413.743 462.291 427.792 458.076C441.841 453.861 451.957 445.713 450.271 439.812C448.585 433.912 435.66 432.788 421.611 436.721Z" fill="#ACAFFA"/>
<path d="M395.48 423.515C392.108 437.845 400.538 451.894 400.538 451.894C400.538 451.894 414.025 442.622 417.396 428.292C420.768 413.962 418.52 401.318 412.339 399.913C406.438 398.508 398.852 409.185 395.48 423.515Z" fill="#ACAFFA"/>
<path d="M409.81 467.348C395.199 468.191 383.96 479.992 383.96 479.992C383.96 479.992 396.604 490.389 411.215 489.546C425.826 488.703 437.627 483.083 437.065 476.902C436.784 470.72 424.421 466.505 409.81 467.348Z" fill="#ACAFFA"/>
<path d="M393.794 501.066C378.059 501.347 365.415 513.429 365.415 513.429C365.415 513.429 378.34 525.23 394.075 524.949C409.81 524.668 422.454 519.33 422.454 512.586C422.173 505.843 409.529 500.785 393.794 501.066Z" fill="#ACAFFA"/>
<path d="M379.182 534.784C363.448 533.379 349.68 544.056 349.68 544.056C349.68 544.056 361.2 556.981 376.935 558.386C392.67 559.791 405.876 555.576 406.438 549.113C407 542.37 394.917 536.188 379.182 534.784Z" fill="#ACAFFA"/>
<path d="M362.886 572.997C347.151 574.121 335.35 587.046 335.35 587.046C335.35 587.046 348.837 598.004 364.572 596.599C380.307 595.475 392.389 589.013 392.108 582.55C391.827 576.088 378.621 571.873 362.886 572.997Z" fill="#ACAFFA"/>
<path d="M383.117 449.647C389.86 462.853 385.083 478.588 385.083 478.588C385.083 478.588 369.91 472.968 363.167 459.762C356.423 446.556 355.58 433.631 361.2 430.821C366.539 428.292 376.373 436.721 383.117 449.647Z" fill="#ACAFFA"/>
<path d="M357.828 483.926C367.381 496.289 365.976 513.71 365.976 513.71C365.976 513.71 348.837 510.9 339.002 498.537C329.449 486.174 325.796 472.968 330.854 468.753C336.193 464.539 348.275 471.282 357.828 483.926Z" fill="#ACAFFA"/>
<path d="M340.689 516.239C351.647 527.478 351.928 544.899 351.928 544.899C351.928 544.899 334.507 543.775 323.549 532.536C312.591 521.297 307.814 508.371 312.31 503.876C317.086 499.099 329.73 504.719 340.689 516.239Z" fill="#ACAFFA"/>
<path d="M330.292 557.262C339.283 570.187 336.474 587.327 336.474 587.327C336.474 587.327 319.615 583.393 310.623 570.468C301.632 557.543 299.103 544.056 304.442 540.403C309.781 536.75 321.301 544.337 330.292 557.262Z" fill="#ACAFFA"/>
<path d="M349.399 612.896C334.226 617.392 325.516 632.284 325.516 632.284C325.516 632.284 340.97 640.151 356.143 635.655C371.315 631.16 381.993 622.449 380.026 616.268C378.34 610.086 364.572 608.681 349.399 612.896Z" fill="#ACAFFA"/>
<path d="M314.276 604.467C325.515 615.425 326.639 632.846 326.639 632.846C326.639 632.846 309.219 632.565 297.979 621.606C286.74 610.648 281.121 598.004 285.616 593.227C290.112 588.451 302.756 593.508 314.276 604.467Z" fill="#ACAFFA"/>
<path d="M342.094 656.167C327.483 661.787 319.896 677.521 319.896 677.521C319.896 677.521 336.193 683.984 350.804 678.364C365.415 672.745 375.53 663.191 373.001 657.01C370.473 650.828 356.705 650.266 342.094 656.167Z" fill="#ACAFFA"/>
<path d="M306.128 650.547C318.491 660.382 320.739 677.521 320.739 677.521C320.739 677.521 303.318 678.645 291.236 668.811C278.873 658.977 272.41 646.895 276.625 641.837C280.84 636.779 294.046 640.713 306.128 650.547Z" fill="#ACAFFA"/>
<path d="M467.13 386.707C467.13 386.707 392.67 433.069 348.275 552.485C303.88 671.902 320.458 781.484 320.458 781.484" stroke="#ACAFFA" stroke-width="1.5789" stroke-miterlimit="10"/>
<path d="M869.493 501.066C869.493 501.066 852.072 386.426 920.069 306.627C950.977 270.381 1037.8 299.322 967.274 363.385C937.771 389.798 891.409 416.21 869.493 501.066Z" fill="#9A9CDE"/>
<path d="M950.696 324.329C950.696 324.329 848.981 413.681 873.427 543.494" stroke="#8E90CE" stroke-width="1.3066" stroke-miterlimit="10"/>
<path d="M304.723 731.189C304.723 731.189 319.334 560.072 113.657 450.77C42.8497 413.119 -77.9718 506.404 70.9477 567.939C132.482 592.946 221.553 608.681 304.723 731.189Z" fill="#9A9CDE"/>
<path d="M74.8817 496.57C74.8817 496.57 287.303 580.583 322.144 801.153" stroke="#8E90CE" stroke-width="2.2066" stroke-miterlimit="10"/>
<path d="M997.339 527.759C995.935 538.155 983.009 550.518 983.009 550.518C983.009 550.518 970.927 540.684 972.051 530.569C973.175 520.173 979.919 512.586 987.224 513.429C994.249 513.991 998.463 519.892 997.339 527.759Z" fill="#194664"/>
<path d="M1193.74 762.377C1197.68 754.791 1202.74 757.601 1211.73 762.939C1220.72 767.997 1226.62 773.055 1225.21 775.583C1224.09 777.831 1219.03 777.831 1208.64 775.583C1196.55 773.055 1191.22 767.435 1193.74 762.377Z" fill="#00558C"/>
<path d="M1181.66 761.815L1198.52 761.534C1200.77 761.815 1202.45 763.501 1202.45 765.749C1202.45 767.997 1200.77 769.683 1198.52 769.964L1181.66 771.65V761.815Z" fill="#FFB49B"/>
<path d="M954.349 789.352C955.754 797.781 950.135 798.343 939.738 799.748C929.342 800.872 921.756 800.31 921.475 797.781C921.194 795.252 925.127 792.442 934.681 787.947C945.92 782.327 953.506 784.013 954.349 789.352Z" fill="#00558C"/>
<path d="M947.606 769.402L949.854 786.261C949.854 788.509 948.449 790.475 946.201 790.475C943.953 790.756 941.986 789.351 941.705 787.104L938.053 770.526L947.606 769.402Z" fill="#FFB49B"/>
<path d="M909.392 674.431C898.434 699.438 938.052 778.955 938.052 778.955C942.829 779.517 947.606 779.236 951.258 776.988C951.258 776.988 946.763 718.264 949.572 710.677C952.663 702.529 1012.79 722.197 1027.12 709.553C1036.11 701.405 1024.88 673.869 1003.52 667.406C988.629 662.91 920.913 648.019 909.392 674.431Z" fill="#5046AF"/>
<path d="M995.934 708.148C1001.55 730.627 1020.38 780.641 1038.64 790.194C1071.24 807.334 1186.16 772.774 1186.16 772.774C1188.12 768.278 1188.12 763.501 1186.16 757.882C1186.16 757.882 1081.91 759.849 1071.24 749.171C1061.4 739.618 1075.45 706.462 1065.9 682.017C1056.63 658.415 1031.62 654.481 1031.62 654.481C1008.3 654.481 990.595 675.274 994.248 698.314C994.529 701.686 995.372 705.057 995.934 708.148Z" fill="#6E64C3"/>
<path d="M955.192 681.174C955.192 681.174 930.466 629.755 931.871 603.905C932.714 587.889 937.49 558.105 967.555 553.609C987.505 550.518 1029.37 571.311 1031.06 597.161C1032.46 618.516 1034.71 644.928 1019.26 671.621C1019.26 671.621 987.505 692.975 955.192 681.174Z" fill="white"/>
<path d="M986.381 600.533C991.438 615.425 999.587 629.474 1005.77 644.085C1009.7 653.638 1013.64 663.191 1017.57 672.745C1018.69 672.183 1019.26 671.621 1019.26 671.621C1034.99 644.928 1034.99 618.235 1033.59 596.88C1032.46 581.707 1007.74 562.32 998.744 560.634C988.629 572.435 981.042 584.517 986.381 600.533Z" fill="#73C8F0"/>
<path d="M988.629 662.91C983.571 648.299 976.547 634.531 970.646 620.201C962.779 601.657 952.383 579.74 952.383 558.948C935.805 569.344 932.433 590.979 931.871 603.905C930.747 629.755 955.192 681.174 955.192 681.174C969.522 686.232 983.571 685.108 995.092 682.017C992.844 675.554 990.877 669.373 988.629 662.91Z" fill="#73C8F0"/>
<path d="M977.108 576.368C983.009 575.526 986.943 570.187 986.1 564.286L981.042 529.445L959.969 532.536L965.026 567.377C966.15 573.278 971.489 577.211 977.108 576.368Z" fill="#FFA587"/>
<path d="M965.308 567.377L962.498 547.709L983.29 544.618L983.852 548.552C985.257 558.667 979.076 571.592 969.522 574.121C967.274 572.716 965.589 570.187 965.308 567.377Z" fill="#F5876E"/>
<path d="M964.465 569.344C973.737 567.939 984.414 555.014 983.009 546.023L980.2 526.916L947.044 531.693L949.854 550.799C951.259 560.072 960.531 569.906 964.465 569.344Z" fill="#FFB49B"/>
<path d="M988.91 536.469C989.472 540.684 986.662 544.337 982.728 544.899L980.48 530.007C984.695 529.445 988.348 532.255 988.91 536.469Z" fill="#FFA587"/>
<path d="M946.763 529.164L979.918 524.387C979.918 524.387 981.323 533.098 981.604 536.188C981.604 537.031 981.604 537.593 981.604 538.436C980.761 538.155 980.199 538.155 979.637 537.593C978.232 536.75 976.828 536.75 975.142 537.031C971.77 537.593 968.398 536.75 965.588 535.064C961.655 532.817 957.159 531.974 952.663 533.379C951.82 533.66 950.696 533.94 949.853 533.94C949.011 533.94 948.168 534.221 947.325 534.221L946.763 529.164Z" fill="#FFA587"/>
<path d="M974.299 665.158L956.878 662.91C951.539 662.348 946.763 660.101 942.267 656.448C941.143 657.853 941.143 659.82 942.548 660.944C944.234 662.629 946.201 664.596 945.92 665.158C945.358 666.282 943.391 664.315 941.705 664.596C940.3 664.877 939.176 665.439 938.614 666.563C935.804 671.34 934.962 676.397 936.366 681.455C936.647 682.86 938.333 683.703 939.738 683.141L957.721 678.364L972.613 674.993L974.299 665.158Z" fill="#FFB49B"/>
<path d="M962.779 663.753L974.018 665.158L971.77 674.993L960.25 677.521C961.093 672.745 961.936 668.249 962.779 663.753Z" fill="#FFA587"/>
<path d="M1006.89 574.964C1012.51 571.873 1019.26 573.84 1022.63 579.178C1034.71 598.285 1063.37 646.052 1062.53 665.72C1061.68 685.389 1022.63 698.314 990.596 699.438C976.266 700 964.184 687.918 965.308 673.307C965.308 673.026 965.308 672.745 965.308 672.745C966.15 659.82 977.671 649.985 990.596 650.266C1004.93 650.828 1021.78 650.266 1024.59 645.49C1027.4 640.713 1010.55 607.557 1001.83 590.98C998.744 585.36 1000.71 578.335 1006.89 574.964Z" fill="#8ED1F0"/>
<path d="M959.126 571.311C959.126 571.311 962.498 560.915 954.911 555.857C950.134 552.485 949.01 544.899 947.887 537.874C944.515 541.808 942.548 547.147 942.548 552.485V555.014C942.548 560.072 944.234 564.848 947.044 568.782L950.134 572.997L947.606 580.864L956.597 587.046L959.126 571.311Z" fill="#FFA587"/>
<path d="M960.25 579.74C969.522 583.674 974.299 594.632 971.489 605.029C963.341 635.655 946.482 688.48 931.309 685.108C919.227 682.298 926.252 630.317 932.152 595.756C934.4 582.269 947.887 574.402 959.969 579.459C959.969 579.74 959.969 579.74 960.25 579.74Z" fill="#8ED1F0"/>
<path d="M973.737 502.471C970.084 501.909 966.432 502.471 963.341 503.876C960.25 505.281 956.878 506.404 953.226 506.404C948.449 506.404 943.391 510.057 940.863 515.115C938.896 518.768 939.177 524.106 940.02 528.321C940.863 532.255 944.796 534.503 948.449 533.379C949.011 533.098 949.573 533.098 949.854 532.817C955.193 530.85 960.531 531.131 965.87 532.817C966.994 533.098 967.837 533.379 968.961 533.66C978.514 535.064 986.943 529.164 988.348 520.734C989.753 512.305 983.291 503.876 973.737 502.471Z" fill="#194664"/>
<path d="M322.987 770.526C322.987 770.526 319.053 697.471 366.819 651.671C388.455 630.879 441.279 654.481 392.951 690.165C373.001 705.057 342.093 718.544 322.987 770.526Z" fill="#9A9CDE"/>
<path d="M385.083 664.877C385.083 664.877 315.962 714.611 322.987 797.5" stroke="#8E90CE" stroke-width="0.8234" stroke-miterlimit="10"/>
<path d="M69.5428 775.864C64.7661 781.203 70.3857 785.98 77.1293 791.318C79.0961 792.723 81.344 793.566 83.8728 793.566H95.393C96.5169 793.566 97.3598 792.442 97.0789 791.318C95.393 787.104 89.2114 786.261 87.8065 784.575C80.501 775.021 72.9146 771.931 69.5428 775.864Z" fill="#41378C"/>
<path d="M81.906 761.534L76.0054 772.774C74.0385 776.426 74.6005 778.674 76.2864 779.798C77.9722 780.922 80.2201 780.641 81.625 779.236L92.3022 767.154L81.906 761.534Z" fill="#FFB49B"/>
<path d="M231.95 789.913C229.983 797.781 235.602 798.905 245.156 800.591C254.99 802.277 262.015 802.277 262.577 799.748C263.139 797.5 259.486 794.409 250.775 789.632C240.66 783.732 233.355 784.856 231.95 789.913Z" fill="#41378C"/>
<path d="M238.131 774.74L237.288 787.385C237.007 789.351 238.412 791.318 240.378 791.88C242.345 792.442 244.312 791.037 244.874 789.07L249.932 773.617L238.131 774.74Z" fill="#FFB49B"/>
<path d="M284.493 467.629C284.493 467.629 310.905 482.802 309.219 520.453C307.814 555.857 258.362 757.882 252.461 777.269C252.18 778.112 251.337 778.955 250.213 778.955C245.999 778.955 241.784 777.831 237.569 775.302C237.007 775.021 236.445 774.178 236.445 773.335L246.56 549.113C247.965 518.767 256.957 489.265 272.973 463.695V463.414L284.493 467.629Z" fill="#AB51A6"/>
<path d="M277.749 472.406L255.833 473.249C221.834 474.654 193.174 498.818 185.588 531.693L180.249 555.014C146.25 626.664 86.4015 742.147 77.4101 759.287C76.8482 760.411 76.8482 762.096 77.9721 763.22C81.6248 766.592 85.2776 768.84 89.2113 770.245C90.8972 770.807 92.5831 770.245 93.707 768.84C106.351 753.386 182.778 660.101 197.951 641.556C302.475 512.867 277.749 472.406 277.749 472.406Z" fill="#BE5AB9"/>
<path d="M105.508 384.74C109.723 383.616 113.095 380.525 114.5 376.311C115.062 374.906 115.624 373.501 116.186 372.096C120.681 361.981 128.83 354.956 137.54 351.865C159.456 343.998 158.895 333.04 170.977 327.982C174.91 326.296 178.563 323.205 181.092 319.272C183.059 316.181 185.307 313.09 188.116 310.561C200.199 299.603 219.024 295.95 229.421 302.132C240.098 308.594 245.155 312.247 249.932 323.767C252.742 331.073 256.114 356.361 251.056 366.195C247.684 372.658 238.693 366.195 233.916 368.162C227.454 370.972 221.272 376.03 217.057 382.211C214.529 386.145 211.157 389.798 206.942 392.888C197.67 399.632 189.802 400.475 183.621 399.913C177.439 399.351 171.258 401.599 167.043 406.094C157.771 416.21 144.003 420.986 131.92 416.491C128.268 415.086 124.053 415.929 120.681 417.896C116.747 420.424 111.69 421.267 106.632 420.143C100.732 418.739 95.955 414.524 93.9881 408.904C89.4924 398.227 95.674 387.55 105.508 384.74Z" fill="#FFDC64"/>
<path d="M284.492 476.059C284.492 476.059 294.327 419.862 284.773 397.384C278.873 383.335 262.014 358.609 233.635 364.509C214.809 368.443 184.183 365.071 190.083 412.838C192.612 433.069 203.57 467.91 226.33 486.455C226.611 486.174 259.485 497.132 284.492 476.059Z" fill="#E64B55"/>
<path d="M233.916 380.806C228.578 381.93 223.239 378.277 222.115 372.939L215.372 340.345L235.04 336.411L241.784 368.724C242.908 374.344 239.255 379.682 233.916 380.806Z" fill="#FFA587"/>
<path d="M238.131 361.981C238.693 361.981 239.536 361.7 240.098 361.419L235.04 336.13L215.372 340.064L216.215 343.717C217.9 353.551 228.297 363.947 238.131 361.981Z" fill="#F5876E"/>
<path d="M239.536 356.08C230.825 357.766 217.057 349.617 215.371 341.188C215.371 341.188 212 327.42 213.404 323.205C218.743 308.313 234.759 306.908 241.502 311.123C245.998 313.933 246.841 326.015 246.56 334.725C246.56 343.717 243.469 355.518 239.536 356.08Z" fill="#FFB49B"/>
<path d="M207.223 334.445C208.066 338.378 211.719 340.907 215.652 340.064L212.843 326.015C208.909 326.858 206.38 330.511 207.223 334.445Z" fill="#FFA587"/>
<path d="M244.032 314.495L215.934 319.834L217.058 325.734C214.529 326.296 212.281 325.734 212.843 328.544C213.124 329.387 213.686 333.321 214.248 333.883C214.81 333.602 215.372 333.04 215.934 332.478C217.058 331.354 218.182 330.792 219.587 330.511C222.677 329.949 225.487 328.263 227.454 325.734C230.264 322.362 234.198 320.957 238.412 320.114C244.032 318.71 244.032 314.495 244.032 314.495Z" fill="#FFA587"/>
<path d="M229.701 283.868C224.644 284.992 220.71 288.364 218.462 292.578C216.214 297.074 212 300.165 207.223 301.851C207.223 301.851 207.223 301.851 206.942 301.851C201.884 304.099 198.512 309.156 198.512 314.776C198.512 315.619 198.512 316.181 198.793 317.024C199.074 319.272 199.355 321.8 198.512 324.048C198.232 325.172 198.232 326.296 198.232 327.42C199.074 331.354 203.008 333.883 207.223 333.04C208.909 332.759 210.314 331.916 211.438 330.511C212.561 329.387 213.685 328.825 215.09 328.544C218.181 327.982 220.991 326.296 222.958 323.767C225.768 320.395 229.701 318.429 233.916 318.148C234.759 318.148 235.602 317.867 236.726 317.867C246.279 315.9 252.461 306.346 250.213 296.793C248.246 287.802 238.412 281.901 229.701 283.868Z" fill="#FFDC64"/>
<path d="M350.242 417.615L364.572 409.185C366.82 407.78 368.506 405.533 369.068 403.004C369.911 398.789 372.721 392.888 374.126 392.888C376.935 393.169 372.44 402.161 374.968 403.285C375.811 403.566 393.513 389.236 394.356 391.484C395.199 393.169 384.522 399.913 384.803 400.475C385.365 401.037 403.347 390.922 403.909 392.326C404.471 393.731 388.175 403.566 389.298 404.128C390.984 404.971 403.909 395.979 405.876 397.946C407.281 399.351 389.298 408.904 389.298 410.028C389.579 411.433 401.662 405.252 401.943 406.656C402.224 408.904 380.588 417.334 380.588 417.334L352.771 428.011L350.242 417.615Z" fill="#FFB49B"/>
<path d="M361.2 409.185C349.118 396.541 333.102 407.499 319.053 412.838L275.501 426.044C275.501 426.044 240.098 397.384 226.611 388.112C222.115 385.021 216.495 385.302 212.281 388.674C207.504 392.607 206.661 399.351 210.314 404.409C231.949 433.069 266.51 464.538 282.526 462.852C298.261 461.167 350.804 456.39 363.167 439.812C369.911 430.54 368.787 417.334 361.2 409.185Z" fill="#FF6473"/>
</svg>
