<svg width="188" height="76" viewBox="0 0 188 76" fill="none" xmlns="http://www.w3.org/2000/svg">
<path d="M68.0219 50.9406V58.0015H67.2401V50.9406H65.4565V50.2321H69.8055V50.9406H68.0219Z" fill="white"/>
<path d="M78.4547 54.3855C78.0149 54.8253 77.4774 55.0696 76.8177 55.0941L79.0166 58.0015H78.0393L75.4006 54.4833H76.2313C76.5734 54.4833 76.8666 54.4344 77.062 54.3611C77.9171 54.0923 78.3325 53.5548 78.3325 52.7241C78.3325 52.04 78.0393 51.5514 77.4774 51.2338C77.2575 51.1116 77.0132 51.0383 76.7444 50.9895C76.5489 50.965 76.2802 50.9406 75.9626 50.9406H74.6188V58.0015H73.837V50.2321H75.816C75.987 50.2321 76.158 50.2321 76.2802 50.2321C76.4512 50.2321 76.6222 50.2565 76.7688 50.2809C77.1598 50.3298 77.4774 50.4031 77.7217 50.5252C78.6501 50.965 79.1143 51.698 79.1143 52.7486C79.1143 53.4082 78.8944 53.9457 78.4547 54.3855Z" fill="white"/>
<path d="M88.8122 55.0696C88.8122 55.3628 88.7878 55.6316 88.7633 55.9003C88.7145 56.1935 88.6412 56.4623 88.5434 56.6822C88.1037 57.6594 87.2974 58.1236 86.1979 58.1236C85.0985 58.1236 84.2922 57.635 83.8525 56.6822C83.7547 56.4623 83.6814 56.1935 83.6326 55.9003C83.5837 55.6316 83.5593 55.3628 83.5593 55.0696V50.2321H84.3411V55.0696C84.3411 55.3139 84.3655 55.5583 84.39 55.7782C84.4388 56.0713 84.5121 56.2912 84.6099 56.4623C84.9519 57.0975 85.4894 57.4151 86.2224 57.4151C86.9553 57.4151 87.4684 57.0975 87.8349 56.4623C87.9326 56.2912 88.0059 56.0713 88.0548 55.7782C88.1037 55.5583 88.1037 55.3139 88.1037 55.0696V50.2321H88.8855V55.0696H88.8122Z" fill="white"/>
<path d="M93.6013 58.0015V50.2321H97.8525V50.9406H94.3832V53.7259H97.7304V54.4344H94.3832V57.293H97.8525V58.0015H93.6013Z" fill="white"/>
<path d="M113.489 58.0015V54.3611H109.482V58.0015H108.7V50.2321H109.482V53.6526H113.489V50.2321H114.271V58.0015H113.489Z" fill="white"/>
<path d="M125.119 58.0015L123.995 55.3872H120.379L119.255 58.0015H118.449L121.772 50.2321H122.651L125.998 58.0015H125.119ZM122.211 51.1116L120.697 54.6787H123.702L122.211 51.1116Z" fill="white"/>
<path d="M134.306 54.4341C134.038 54.6052 133.72 54.7517 133.353 54.8006C133.207 54.825 133.036 54.8495 132.84 54.8739C132.694 54.8739 132.523 54.8983 132.327 54.8983H130.935V58.0257H130.153V50.2562H132.327C132.523 50.2562 132.694 50.2562 132.84 50.2807C133.036 50.3051 133.207 50.3051 133.353 50.354C133.72 50.4273 134.062 50.5494 134.306 50.7204C134.942 51.1602 135.259 51.771 135.259 52.5773C135.259 53.3591 134.942 53.9944 134.306 54.4341ZM133.598 51.1358C133.402 51.0381 133.182 50.9892 132.938 50.9648L132.596 50.9403H130.91V54.1654H132.596L132.938 54.1409C133.182 54.1165 133.402 54.0676 133.598 53.9699C134.209 53.6767 134.502 53.2125 134.502 52.5529C134.502 51.8932 134.184 51.429 133.598 51.1358Z" fill="white"/>
<path d="M143.762 54.4341C143.493 54.6052 143.176 54.7517 142.809 54.8006C142.662 54.825 142.491 54.8495 142.296 54.8739C142.149 54.8739 141.978 54.8983 141.783 54.8983H140.39V58.0257H139.608V50.2562H141.783C141.978 50.2562 142.149 50.2562 142.296 50.2807C142.491 50.3051 142.662 50.3051 142.809 50.354C143.176 50.4273 143.518 50.5494 143.762 50.7204C144.397 51.1602 144.715 51.771 144.715 52.5773C144.739 53.3591 144.422 53.9944 143.762 54.4341ZM143.053 51.1358C142.858 51.0381 142.638 50.9892 142.394 50.9648L142.052 50.9403H140.366V54.1654H142.052L142.394 54.1409C142.638 54.1165 142.858 54.0676 143.053 53.9699C143.664 53.6767 143.957 53.2125 143.957 52.5529C143.957 51.8932 143.664 51.429 143.053 51.1358Z" fill="white"/>
<path d="M149.087 58.0015V50.2321H149.868V58.0015H149.087Z" fill="white"/>
<path d="M160.105 58.0015L155.487 51.1605H155.463V58.0015H154.681V50.2321H155.732L160.081 56.6822H160.105V50.2321H160.887V58.0015H160.105Z" fill="white"/>
<path d="M165.651 58.0015V50.2321H169.903V50.9406H166.433V53.7259H169.781V54.4344H166.433V57.293H169.903V58.0015H165.651Z" fill="white"/>
<path d="M178.088 57.4883C177.623 57.9281 177.086 58.1479 176.426 58.1479C175.742 58.1479 175.156 57.9281 174.716 57.5127C174.276 57.0974 174.032 56.5354 174.032 55.8269H174.814C174.863 56.9019 175.4 57.4394 176.426 57.4394C176.866 57.4394 177.232 57.2928 177.526 56.9996C177.843 56.7064 177.99 56.34 177.99 55.9002C177.99 55.436 177.819 55.0451 177.452 54.7763C177.306 54.6541 177.11 54.5564 176.89 54.4587C176.719 54.3854 176.524 54.3121 176.255 54.2388C175.938 54.1411 175.669 54.0433 175.473 53.97C175.205 53.8723 175.009 53.7502 174.838 53.6036C174.447 53.2859 174.252 52.7973 174.252 52.1865C174.252 51.5757 174.472 51.087 174.887 50.6717C175.302 50.2808 175.815 50.0853 176.426 50.0853C177.037 50.0853 177.526 50.2808 177.941 50.6961C178.356 51.1115 178.576 51.6001 178.576 52.2109H177.794C177.794 51.82 177.672 51.5024 177.403 51.2092C177.135 50.9405 176.817 50.7939 176.426 50.7939C176.035 50.7939 175.693 50.916 175.424 51.1848C175.156 51.4535 175.009 51.7711 175.009 52.1621C175.009 52.6018 175.229 52.9683 175.644 53.1882C175.791 53.2615 175.986 53.3592 176.255 53.4325L176.866 53.628C177.452 53.799 177.917 54.0678 178.234 54.4343C178.601 54.8252 178.772 55.3138 178.772 55.8758C178.772 56.511 178.552 57.0485 178.088 57.4883Z" fill="white"/>
<path d="M186.566 57.4883C186.101 57.9281 185.564 58.1479 184.904 58.1479C184.22 58.1479 183.634 57.9281 183.194 57.5127C182.754 57.0974 182.51 56.5354 182.51 55.8269H183.292C183.34 56.9019 183.878 57.4394 184.904 57.4394C185.344 57.4394 185.71 57.2928 186.004 56.9996C186.321 56.7064 186.468 56.34 186.468 55.9002C186.468 55.436 186.297 55.0451 185.93 54.7763C185.784 54.6541 185.588 54.5564 185.368 54.4587C185.197 54.3854 185.002 54.3121 184.733 54.2388C184.415 54.1411 184.147 54.0433 183.951 53.97C183.683 53.8723 183.487 53.7502 183.316 53.6036C182.925 53.2859 182.73 52.7973 182.73 52.1865C182.73 51.5757 182.95 51.087 183.365 50.6717C183.78 50.2808 184.293 50.0853 184.904 50.0853C185.515 50.0853 186.004 50.2808 186.419 50.6961C186.834 51.1115 187.054 51.6001 187.054 52.2109H186.272C186.272 51.82 186.15 51.5024 185.881 51.2092C185.613 50.9405 185.295 50.7939 184.904 50.7939C184.513 50.7939 184.171 50.916 183.902 51.1848C183.634 51.4535 183.487 51.7711 183.487 52.1621C183.487 52.6018 183.707 52.9683 184.122 53.1882C184.269 53.2615 184.464 53.3592 184.733 53.4325L185.344 53.628C185.93 53.799 186.394 54.0678 186.712 54.4343C187.079 54.8252 187.25 55.3138 187.25 55.8758C187.25 56.511 187.03 57.0485 186.566 57.4883Z" fill="white"/>
<path d="M101.003 46.983C100.466 45.7858 94.3575 31.4197 93.1603 28.4634C92.9649 27.9991 92.6228 27.8281 92.1342 27.8281H92.1098C90.4484 27.8526 88.787 27.8281 87.1256 27.8526C87.0279 27.8281 86.9546 27.8281 86.8568 27.8281C86.3682 27.8281 86.0506 28.1213 85.8551 28.6344C84.2182 32.6168 82.5568 36.5993 80.8954 40.5817C80.6755 41.1192 80.6511 41.6079 80.9198 42.0965C80.9198 42.0965 80.9198 42.0965 80.8954 42.0965C81.7261 43.6358 82.5323 45.175 83.363 46.6898C83.6562 47.2517 84.1449 47.4472 84.7557 47.325C85.4398 47.1296 92.9649 42.7318 93.3069 42.3408C91.9876 42.3408 88.5671 42.4386 85.6108 42.4141C86.1727 40.7772 86.9301 39.238 87.5898 37.6254C88.2006 36.1106 88.8603 34.6203 89.5199 33.1543C91.3524 37.4788 94.1132 43.9045 95.3592 46.8852C95.5303 47.2761 95.6769 47.496 96.1655 47.4716C97.6559 47.4472 99.1707 47.4472 100.661 47.4716C101.125 47.4716 101.174 47.3739 101.003 46.983Z" fill="white"/>
<path d="M77.9131 45.6392C77.0091 46.3966 76.0318 46.9096 74.9324 47.1051C74.4682 47.2028 73.9551 47.2517 73.3443 47.2761C73.0999 47.2761 72.8068 47.3005 72.4891 47.3005H65.4038V27.877H71.3653C72.1227 27.877 72.6846 27.9014 73.0755 27.9258C73.7108 27.9503 74.2483 28.0235 74.7125 28.1457C75.8852 28.4145 76.8381 28.952 77.571 29.7827C78.3284 30.6378 78.7194 31.6884 78.7194 32.9833C78.7194 34.7424 77.9619 36.0373 76.4716 36.8924C78.5972 37.6254 79.6722 39.1402 79.6722 41.4124C79.6966 43.2204 79.0858 44.613 77.9131 45.6392ZM73.4176 32.5191C73.0999 32.3236 72.6602 32.2259 72.0494 32.2259H70.1437V35.2555H72.0249C73.3443 35.2555 74.0039 34.7424 74.0039 33.7162C74.0039 33.1543 73.8085 32.739 73.4176 32.5191ZM74.2238 39.7266C73.8573 39.5311 73.3198 39.4089 72.6357 39.4089H70.1437V42.9516H72.6113C73.3198 42.9516 73.8573 42.8295 74.2483 42.5607C74.7125 42.2431 74.9568 41.7544 74.9568 41.0948C74.9324 40.4595 74.688 39.9953 74.2238 39.7266Z" fill="white"/>
<path d="M108.721 32.2259V47.3005H103.761V32.2259H99.925L101.22 27.877H112.532V32.2259H108.721Z" fill="white"/>
<path d="M126.705 32.2504V47.3006H121.745V32.2504H116.468L117.933 27.9015H130.516V32.2504H126.705Z" fill="white"/>
<path d="M133.642 47.3005V27.877H144.416V32.2503H138.382V35.2799H144.221V39.6288H138.382V42.9516H144.416V47.3005H133.642Z" fill="white"/>
<path d="M167.139 40.0441C166.578 42.3163 165.38 44.1731 163.572 45.5658C161.764 46.9584 159.688 47.6669 157.342 47.6669C154.508 47.6669 152.089 46.6896 150.11 44.7351C148.107 42.7805 147.105 40.3861 147.105 37.552C147.105 34.7179 148.107 32.3479 150.086 30.3934C152.065 28.4632 154.459 27.5104 157.293 27.5104C160.983 27.5104 163.817 29.0252 165.845 32.0792C166.553 33.1298 166.993 34.1804 167.164 35.2554H161.96C161.105 33.0076 159.541 31.8837 157.269 31.8837C155.73 31.8837 154.484 32.4457 153.482 33.594C152.529 34.6934 152.065 36.0128 152.065 37.552C152.065 39.1157 152.529 40.4594 153.482 41.5589C154.484 42.7316 155.754 43.318 157.293 43.318C159.419 43.318 160.958 42.2186 161.96 40.0441H167.139Z" fill="white"/>
<path d="M181.483 27.9015V35.2067H176.816C176.254 35.2067 175.692 35.1579 175.13 35.0846V27.9259H170.17V33.1055V34.4737V47.3495H175.13V39.5801H180.456C180.798 39.5801 181.14 39.6289 181.483 39.6778V47.3495H186.442V41.9744V40.6062V27.9259H181.483V27.9015Z" fill="white"/>
<path d="M25.3637 48.3757C25.3637 48.3757 25.3637 37.7966 25.3637 35.6465C25.3637 33.4965 26.0478 31.6641 27.9779 30.6379C29.908 29.6118 34.4524 29.4896 35.4786 34.4982C35.4786 34.4982 37.4087 33.4721 39.5832 34.6204C41.7332 35.6465 42.3196 37.4545 42.5395 38.9449C42.6616 40.4352 42.0753 42.3654 39.3633 43.9535C36.6269 45.5416 33.4507 47.374 31.6183 48.4001C29.8103 49.4263 27.6358 50.8922 26.1699 51.5763C24.6796 52.2604 22.7494 53.1644 20.3795 51.2343C17.9851 49.4263 17.5454 45.3217 20.5016 43.2694C20.5016 43.2694 18.0096 41.5591 18.5715 38.2608C19.0357 34.9624 22.2119 33.8141 24.6063 34.2783L24.4841 36.3306C24.4841 36.3306 23.2381 35.8664 21.8699 36.6727C20.5016 37.479 20.1596 39.1648 20.7215 40.533C21.2835 41.9012 22.8716 42.1211 23.3358 42.8052C23.8 43.4893 23.3358 43.9535 22.5295 44.3933C21.6255 44.8575 20.3795 45.7615 20.5994 47.8138C20.8193 49.8661 23.3358 51.1121 25.2659 49.9638C27.1961 48.8155 36.9934 43.2449 38.6792 42.2188C40.3894 41.1926 40.7315 40.1665 40.7315 39.3847C40.7315 38.6028 40.5116 37.4545 39.3633 36.6483C38.215 35.842 36.8712 36.0863 36.065 36.6483C35.2587 37.1125 34.8189 37.4545 34.257 37.1125C33.695 36.7704 33.7928 35.9642 33.7928 35.4022C33.7928 34.8403 33.7928 33.8141 32.6444 32.788C31.6183 31.7618 29.6882 31.7618 28.4421 33.0079C27.758 33.692 27.6358 34.596 27.6358 35.9642V47.2274L25.3637 48.3757Z" fill="white"/>
<path d="M28.4161 36.1107L37.5049 41.3392L35.4526 42.4875L28.3917 38.3829V36.1107H28.4161Z" fill="white"/>
<path d="M41.1708 43.8312C41.1708 43.8312 43.101 45.6392 42.197 48.6199C41.3907 51.5762 38.0924 53.0665 35.3804 51.9182C35.3804 51.9182 35.1605 54.3126 32.986 55.5586C30.9337 56.8047 27.2933 56.8047 25.4854 52.9444L27.2933 51.9182C27.2933 51.9182 27.8553 54.4103 30.4695 54.3126C33.0838 54.2149 33.4258 51.9182 33.3037 51.2341C33.3037 50.55 33.1815 49.7438 33.7679 49.4261C34.3298 49.0841 34.794 49.4261 35.8202 49.9881C36.7242 50.55 38.8986 50.55 39.9248 48.9619C40.8288 47.3738 40.2668 45.7858 39.3628 44.9795L41.1708 43.8312Z" fill="white"/>
<path d="M28.418 39.6288L34.4528 43.147L28.418 46.6653V39.6288Z" fill="white"/>
<path fill-rule="evenodd" clip-rule="evenodd" d="M21.2579 58.5392C10.41 52.2601 12.047 55.1187 12.047 42.5849C12.047 39.873 11.9737 37.894 11.9493 36.3547C8.52877 38.9934 1.88321 44.6861 0.0263672 50.3299C0.124096 53.3595 0.661604 56.1448 2.22526 58.8568C3.93552 61.7886 6.28101 63.7188 9.13957 65.429C11.143 66.6262 13.2442 67.7012 15.2476 68.8495C17.2755 70.0223 19.2545 71.2928 21.2824 72.4411C24.1898 74.078 27.0239 75.153 30.42 75.153C33.8161 75.153 36.6502 74.078 39.5576 72.4411C41.5855 71.2928 43.5645 70.0223 45.5924 68.8495C46.8873 68.1166 48.1822 67.408 49.4771 66.6751C42.3918 68.8495 30.7376 63.7676 28.4899 62.7415C28.3677 62.6926 28.2455 62.6193 28.0989 62.5705C26.6574 61.8375 24.654 60.4937 21.2579 58.5392Z" fill="white"/>
<path fill-rule="evenodd" clip-rule="evenodd" d="M48.94 34.5716C49.0621 36.2329 48.8911 38.6517 48.8911 42.5853C48.8911 55.119 50.5281 52.2605 39.6802 58.5395C37.3347 59.8833 35.6489 60.9583 34.3295 61.7157C38.3364 63.3527 46.5701 66.2601 52.3849 65.0385C54.9747 63.426 57.1003 61.5935 58.664 58.8571C60.3742 55.9253 60.8629 52.9201 60.8873 49.5729C60.9117 47.2519 60.7896 44.9064 60.7896 42.5609C60.7896 40.2154 60.8873 37.8699 60.8873 35.5488C60.8629 32.2261 60.3742 29.2209 58.664 26.2646C56.9537 23.3327 54.6082 21.4026 51.7497 19.6924C49.7462 18.4952 47.6451 17.4202 45.6416 16.2718C44.3467 15.5389 43.1007 14.757 41.8302 13.9752C47.2786 19.0327 48.6957 31.713 48.9155 34.1318C48.9155 34.3028 48.94 34.425 48.94 34.5716Z" fill="white"/>
<path fill-rule="evenodd" clip-rule="evenodd" d="M38.9481 12.3627C36.2606 10.9212 33.5975 10.0172 30.4457 10.0172C27.0497 10.0172 24.2155 11.0922 21.3081 12.7292C19.2802 13.8775 17.3012 15.148 15.2733 16.3207C14.1983 16.9315 13.1233 17.5179 12.0483 18.1287V15.2945C12.0483 5.52167 12.7568 0 0.0765273 0V33.7164C0.0276629 34.3272 0.0032307 34.938 0.0032307 35.5488C-0.0212015 37.8699 0.100959 40.2154 0.100959 42.5609C0.100959 44.0512 0.0520951 45.5416 0.0276629 47.0075C1.68905 39.7512 11.975 32.2016 13.954 30.7846C14.0517 30.7113 14.1739 30.638 14.2961 30.5647C15.6887 29.6362 17.8632 28.5612 21.2592 26.6067C32.1071 20.3276 28.8332 20.3276 39.6811 26.6067C42.0266 27.9504 43.7857 28.8788 45.105 29.6362C44.5431 25.385 42.9306 16.7849 38.9481 12.3627Z" fill="white"/>
</svg>
