<svg width="346" height="128" viewBox="0 0 346 128" fill="none" xmlns="http://www.w3.org/2000/svg">
<path d="M42.8877 81.7997C42.8877 81.7997 42.8877 63.9112 42.8877 60.2757C42.8877 56.6402 44.0445 53.5417 47.3082 51.8066C50.5719 50.0714 58.2561 49.8649 59.9913 58.334C59.9913 58.334 63.255 56.5989 66.9318 58.5406C70.5673 60.2757 71.5589 63.3329 71.9307 65.8529C72.1372 68.373 71.1457 71.6367 66.56 74.3221C61.933 77.0074 56.5623 80.1059 53.4638 81.841C50.4067 83.5762 46.7298 86.055 44.251 87.2117C41.7309 88.3685 38.4672 89.897 34.4599 86.6333C30.4112 83.5762 29.6676 76.6356 34.6664 73.1653C34.6664 73.1653 30.4525 70.2734 31.4027 64.6962C32.1877 59.1189 37.5583 57.1772 41.607 57.9622L41.4004 61.4325C41.4004 61.4325 39.2935 60.6475 36.98 62.0109C34.6664 63.3742 34.0881 66.2248 35.0383 68.5383C35.9885 70.8518 38.6738 71.2236 39.4587 72.3804C40.2437 73.5371 39.4587 74.3221 38.0954 75.0657C36.5668 75.8507 34.4599 77.3792 34.8317 80.8495C35.2035 84.3198 39.4587 86.4268 42.7225 84.4851C45.9862 82.5434 62.5526 73.124 65.4032 71.3889C68.2951 69.6537 68.8735 67.9186 68.8735 66.5966C68.8735 65.2746 68.5017 63.3329 66.56 61.9695C64.6183 60.6062 62.3461 61.0193 60.9828 61.9695C59.6194 62.7545 58.8758 63.3329 57.9256 62.7545C56.9754 62.1761 57.1407 60.8128 57.1407 59.8626C57.1407 58.9124 57.1407 57.1772 55.199 55.4421C53.4638 53.707 50.2001 53.707 48.0931 55.8139C46.9364 56.9707 46.7298 58.4993 46.7298 60.8128V79.858L42.8877 81.7997Z" fill="#186E25"/>
<path d="M48.0492 61.061L63.4176 69.902L59.9473 71.8437L48.0079 64.9031V61.061H48.0492Z" fill="#186E25"/>
<path d="M69.6165 74.1157C69.6165 74.1157 72.8802 77.1729 71.3517 82.2131C69.9883 87.2119 64.4111 89.732 59.8254 87.7903C59.8254 87.7903 59.4535 91.839 55.7767 93.9459C52.3064 96.0529 46.1508 96.0529 43.0936 89.5254L46.1508 87.7903C46.1508 87.7903 47.101 92.0042 51.5215 91.839C55.9419 91.6737 56.5203 87.7903 56.3138 86.6335C56.3138 85.4768 56.1072 84.1134 57.0987 83.5764C58.0489 82.998 58.8338 83.5764 60.569 84.5266C62.0976 85.4768 65.7744 85.4768 67.5096 82.7914C69.0381 80.1061 68.0879 77.4208 66.5594 76.0574L69.6165 74.1157Z" fill="#186E25"/>
<path d="M48.0526 67.01L58.2569 72.9591L48.0526 78.9081V67.01Z" fill="#EA5B0C"/>
<path fill-rule="evenodd" clip-rule="evenodd" d="M35.9458 98.9851C17.6028 88.3677 20.3708 93.2013 20.3708 72.0078C20.3708 67.4221 20.2469 64.0757 20.2055 61.473C14.4217 65.9348 3.18464 75.5607 0.0448608 85.104C0.210112 90.2268 1.119 94.9365 3.76302 99.5222C6.65492 104.48 10.621 107.743 15.4546 110.635C18.8422 112.66 22.3951 114.477 25.7828 116.419C29.2118 118.402 32.5581 120.55 35.9871 122.492C40.9033 125.26 45.6956 127.078 51.4381 127.078C57.1806 127.078 61.9729 125.26 66.8891 122.492C70.3181 120.55 73.6644 118.402 77.0934 116.419C79.283 115.18 81.4726 113.982 83.6621 112.742C71.6814 116.419 51.9752 107.826 48.1744 106.091C47.9678 106.008 47.7612 105.884 47.5134 105.802C45.0759 104.562 41.6883 102.29 35.9458 98.9851Z" fill="#186E25"/>
<path fill-rule="evenodd" clip-rule="evenodd" d="M82.7539 58.4585C82.9604 61.2678 82.6712 65.3577 82.6712 72.0091C82.6712 93.2026 85.4392 88.369 67.0963 98.9864C63.1303 101.259 60.2797 103.076 58.0488 104.357C64.8241 107.125 78.7465 112.041 88.579 109.976C92.9582 107.249 96.5524 104.151 99.1964 99.5235C102.088 94.5659 102.915 89.4845 102.956 83.8246C102.997 79.8999 102.791 75.9338 102.791 71.9678C102.791 68.0018 102.956 64.0357 102.956 60.111C102.915 54.4924 102.088 49.411 99.1964 44.4121C96.3045 39.4546 92.3385 36.1908 87.5049 33.2989C84.1172 31.2746 80.5643 29.4568 77.1766 27.5151C74.9871 26.2757 72.8801 24.9537 70.7318 23.6317C79.9446 32.1835 82.3407 53.6249 82.7126 57.7148C82.7126 58.004 82.7539 58.2106 82.7539 58.4585Z" fill="#186E25"/>
<path fill-rule="evenodd" clip-rule="evenodd" d="M65.8582 20.9043C61.3138 18.4669 56.8107 16.9383 51.4813 16.9383C45.7388 16.9383 40.9465 18.7561 36.0303 21.524C32.6013 23.4657 29.255 25.614 25.826 27.597C24.0083 28.6298 22.1905 29.6213 20.3727 30.6542V25.8619C20.3727 9.33671 21.5708 0 0.129402 0V57.0118C0.0467758 58.0446 0.00546286 59.0774 0.00546286 60.1103C-0.03585 64.035 0.170714 68.001 0.170714 71.9671C0.170714 74.4871 0.0880886 77.0072 0.0467758 79.486C2.85605 67.2161 20.2488 54.4504 23.5951 52.0542C23.7604 51.9303 23.9669 51.8064 24.1735 51.6824C26.5283 50.1125 30.2052 48.2948 35.9477 44.9897C54.2906 34.3723 48.7547 34.3723 67.0976 44.9897C71.0636 47.2619 74.0382 48.8318 76.2691 50.1125C75.3189 42.9241 72.5922 28.382 65.8582 20.9043Z" fill="#186E25"/>
<path d="M180.377 92.2115C179.344 89.8979 167.487 62.053 165.173 56.3106C164.802 55.4017 164.141 55.0712 163.19 55.0712H163.149C159.927 55.1125 156.704 55.1125 153.523 55.1125C153.358 55.0712 153.193 55.0712 153.027 55.0712C152.077 55.0712 151.458 55.6495 151.086 56.6411C147.905 64.3666 144.682 72.0921 141.46 79.8176C141.047 80.8504 140.964 81.8006 141.501 82.7508H141.46C143.03 85.7253 144.641 88.6999 146.211 91.6744C146.789 92.7485 147.739 93.1203 148.937 92.8725C150.26 92.5006 164.843 83.9902 165.545 83.2052C162.984 83.2052 156.333 83.3705 150.631 83.3705C151.747 80.2307 153.193 77.2149 154.473 74.1164C155.671 71.1832 156.952 68.2913 158.233 65.4407C161.786 73.8272 167.115 86.3037 169.553 92.0875C169.883 92.8311 170.172 93.2443 171.081 93.2443C173.973 93.1616 176.906 93.203 179.798 93.2443C180.583 93.1616 180.707 92.9551 180.377 92.2115Z" fill="#186E25"/>
<path d="M135.594 89.5675C133.859 91.0548 131.917 92.005 129.81 92.4181C128.943 92.5833 127.91 92.7073 126.712 92.7486C126.216 92.7486 125.679 92.7899 125.059 92.7899H111.302V55.1125H122.911C124.357 55.1125 125.473 55.1539 126.257 55.1952C127.456 55.2778 128.53 55.4017 129.439 55.6083C131.711 56.1041 133.529 57.1782 134.974 58.7894C136.462 60.4419 137.205 62.5076 137.205 64.9863C137.205 68.4153 135.759 70.9354 132.826 72.5466C136.957 73.9925 139.023 76.8844 139.023 81.3049C139.023 84.8578 137.866 87.6258 135.594 89.5675ZM126.877 64.1601C126.299 63.7883 125.39 63.623 124.233 63.623H120.515V69.4894H124.15C126.712 69.4894 127.993 68.4979 127.993 66.4736C127.993 65.3581 127.621 64.5732 126.877 64.1601ZM128.447 78.1238C127.703 77.7107 126.671 77.5455 125.349 77.5455H120.515V84.4034H125.307C126.671 84.4034 127.703 84.1555 128.447 83.6598C129.356 83.0401 129.81 82.0899 129.81 80.8092C129.81 79.5285 129.356 78.6609 128.447 78.1238Z" fill="#186E25"/>
<path d="M195.332 63.5818V92.8313H185.706V63.5818H178.269L180.748 55.1539H202.727V63.5818H195.332Z" fill="#186E25"/>
<path d="M230.16 63.623V92.8312H220.534V63.623H210.33L213.139 55.1952H237.555V63.623H230.16Z" fill="#186E25"/>
<path d="M243.629 92.8312V55.1952H264.533V63.623H252.842V69.4894H264.162V77.9173H252.842V84.3621H264.533V92.7899H243.629V92.8312Z" fill="#186E25"/>
<path d="M308.573 78.7433C307.499 83.1638 305.185 86.7167 301.632 89.4846C298.121 92.2113 294.113 93.5746 289.528 93.5746C284.033 93.5746 279.365 91.6742 275.481 87.9147C271.598 84.114 269.656 79.4869 269.656 73.9923C269.656 68.4977 271.557 63.8706 275.399 60.1112C279.241 56.393 283.868 54.5339 289.362 54.5339C296.51 54.5339 302.046 57.4671 305.929 63.3749C307.292 65.3992 308.118 67.4649 308.49 69.5305H298.41C296.757 65.1513 293.7 62.9618 289.321 62.9618C286.347 62.9618 283.909 64.0772 282.009 66.2668C280.191 68.3738 279.241 70.9352 279.241 73.951C279.241 76.9668 280.15 79.5695 282.009 81.7178C283.95 83.99 286.388 85.1468 289.362 85.1468C293.452 85.1468 296.468 83.0398 298.41 78.7846H308.573V78.7433Z" fill="#186E25"/>
<path d="M336.333 55.1952V69.3655H327.285C326.211 69.3655 325.095 69.2829 324.021 69.1176V55.2365H314.437V65.2755V67.9196V92.8725H324.063V77.8347H334.391C335.052 77.8347 335.713 77.9173 336.374 78.0412V92.9139H346V82.503V79.859V55.2778H336.333V55.1952Z" fill="#186E25"/>
</svg>
